{
  "accessors": [
    {
      "bufferView": 2,
      "componentType": 5126,
      "count": 25516,
      "max": [
        3.1969175338745117,
        2.811711311340332,
        3.0362548828125
      ],
      "min": [
        -3.1969175338745117,
        -3.7317111492156982,
        -3.0362548828125
      ],
      "type": "VEC3"
    },
    {
      "bufferView": 2,
      "byteOffset": 306192,
      "componentType": 5126,
      "count": 25516,
      "max": [
        0.9999907612800598,
        0.9999352693557739,
        0.9999886751174927
      ],
      "min": [
        -0.9998152256011963,
        -0.9999656081199646,
        -0.9999593496322632
      ],
      "type": "VEC3"
    },
    {
      "bufferView": 3,
      "componentType": 5126,
      "count": 25516,
      "max": [
        0.9999739527702332,
        0.9996208548545837,
        0.9999774694442749,
        1.0
      ],
      "min": [
        -0.9999043345451355,
        -0.9999311566352844,
        -0.9999858736991882,
        -1.0
      ],
      "type": "VEC4"
    },
    {
      "bufferView": 1,
      "componentType": 5126,
      "count": 25516,
      "max": [
        0.9970337748527527,
        0.9861139059066772
      ],
      "min": [
        0.011721406131982803,
        0.004014020320028067
      ],
      "type": "VEC2"
    },
    {
      "bufferView": 1,
      "byteOffset": 204128,
      "componentType": 5126,
      "count": 25516,
      "max": [
        0.9970337748527527,
        0.9861139059066772
      ],
      "min": [
        0.011721406131982803,
        0.004014020320028067
      ],
      "type": "VEC2"
    },
    {
      "bufferView": 0,
      "componentType": 5125,
      "count": 124764,
      "type": "SCALAR"
    }
  ],
  "asset": {
    "extras": {
      "author": "gelmi.com.br (https://sketchfab.com/rodrigogelmi)",
      "license": "CC-BY-4.0 (http://creativecommons.org/licenses/by/4.0/)",
      "source": "https://sketchfab.com/3d-models/raspberry-0033322379a24798a6875a5cb2de54f5",
      "title": "Raspberry"
    },
    "generator": "Sketchfab-12.67.0",
    "version": "2.0"
  },
  "bufferViews": [
    {
      "buffer": 0,
      "byteLength": 499056,
      "name": "floatBufferViews",
      "target": 34963
    },
    {
      "buffer": 0,
      "byteLength": 408256,
      "byteOffset": 499056,
      "byteStride": 8,
      "name": "floatBufferViews",
      "target": 34962
    },
    {
      "buffer": 0,
      "byteLength": 612384,
      "byteOffset": 907312,
      "byteStride": 12,
      "name": "floatBufferViews",
      "target": 34962
    },
    {
      "buffer": 0,
      "byteLength": 408256,
      "byteOffset": 1519696,
      "byteStride": 16,
      "name": "floatBufferViews",
      "target": 34962
    }
  ],
  "buffers": [
    {
      "byteLength": 1927952,
      "uri": "scene.bin"
    }
  ],
  "extensionsRequired": [
    "KHR_materials_pbrSpecularGlossiness"
  ],
  "extensionsUsed": [
    "KHR_materials_pbrSpecularGlossiness"
  ],
  "images": [
    {
      "uri": "textures/raspberry_diffuse.jpeg"
    },
    {
      "uri": "textures/raspberry_normal.png"
    }
  ],
  "materials": [
    {
      "extensions": {
        "KHR_materials_pbrSpecularGlossiness": {
          "diffuseFactor": [
            1.0,
            1.0,
            1.0,
            1.0
          ],
          "diffuseTexture": {
            "index": 0
          },
          "glossinessFactor": 0.5057959250679459,
          "specularFactor": [
            0.17554800936937232,
            0.0607129774791352,
            0.0607129774791352
          ]
        }
      },
      "name": "raspberry",
      "normalTexture": {
        "index": 1,
        "scale": 0.8529342915686239
      }
    }
  ],
  "meshes": [
    {
      "name": "Mesh_raspberry_0",
      "primitives": [
        {
          "attributes": {
            "NORMAL": 1,
            "POSITION": 0,
            "TANGENT": 2,
            "TEXCOORD_0": 3,
            "TEXCOORD_1": 4
          },
          "indices": 5,
          "material": 0,
          "mode": 4
        }
      ]
    }
  ],
  "nodes": [
    {
      "children": [
        1
      ],
      "matrix": [
        1.0,
        0.0,
        0.0,
        0.0,
        0.0,
        2.220446049250313e-16,
        -1.0,
        0.0,
        0.0,
        1.0,
        2.220446049250313e-16,
        0.0,
        0.0,
        0.0,
        0.0,
        1.0
      ],
      "name": "Sketchfab_model"
    },
    {
      "children": [
        2
      ],
      "matrix": [
        1.0,
        0.0,
        0.0,
        0.0,
        0.0,
        0.0,
        1.0,
        0.0,
        0.0,
        -1.0,
        0.0,
        0.0,
        0.0,
        0.0,
        0.0,
        1.0
      ],
      "name": "755c807aac2f4de594c3b0625e5fcc9e.fbx"
    },
    {
      "children": [
        3,
        5,
        7
      ],
      "name": "RootNode"
    },
    {
      "children": [
        4
      ],
      "name": "Mesh"
    },
    {
      "mesh": 0,
      "name": "Mesh_raspberry_0"
    },
    {
      "children": [
        6
      ],
      "matrix": [
        0.0,
        -0.08715574274765814,
        -0.9961946980917455,
        0.0,
        0.0,
        0.9961946980917455,
        -0.08715574274765814,
        0.0,
        1.0,
        0.0,
        0.0,
        0.0,
        0.0,
        75.0,
        400.0,
        1.0
      ],
      "name": "Camera"
    },
    {
      "name": "Object_6"
    },
    {
      "children": [
        8
      ],
      "matrix": [
        0.7071067811865476,
        5.551115123125783e-17,
        0.7071067811865475,
        0.0,
        -0.6123724356957945,
        0.5000000000000001,
        0.6123724356957945,
        0.0,
        -0.35355339059327373,
        -0.8660254037844386,
        0.35355339059327395,
        0.0,
        -200.0,
        200.0,
        200.0,
        1.0
      ],
      "name": "Directional Light"
    },
    {
      "children": [
        9
      ],
      "matrix": [
        1.0,
        0.0,
        0.0,
        0.0,
        0.0,
        2.220446049250313e-16,
        1.0,
        0.0,
        0.0,
        -1.0,
        2.220446049250313e-16,
        0.0,
        0.0,
        0.0,
        0.0,
        1.0
      ],
      "name": "Object_8"
    },
    {
      "name": "Object_9"
    }
  ],
  "samplers": [
    {
      "magFilter": 9729,
      "minFilter": 9987,
      "wrapS": 10497,
      "wrapT": 10497
    }
  ],
  "scene": 0,
  "scenes": [
    {
      "name": "Sketchfab_Scene",
      "nodes": [
        0
      ]
    }
  ],
  "textures": [
    {
      "sampler": 0,
      "source": 0
    },
    {
      "sampler": 0,
      "source": 1
    }
  ]
}
